<?xml version="1.0" encoding="UTF-8"?>
<svg id="Layer_1" data-name="Layer 1" xmlns="http://www.w3.org/2000/svg" viewBox="0 0 540 155.69">
  <defs>
    <style>
      .cls-1 {
        fill: #111;
      }
    </style>
  </defs>
  <g>
    <path class="cls-1" d="m500.77,105.44h-3.27v-2.29h9.31v2.29h-3.27v8.47h-2.77v-8.47Zm7.23-2.29h3.67l2.11,6.01.47,1.77.5-1.77,2.11-6.01h3.56v10.76h-2.77l.16-7.65-.84,2.79-1.74,4.85h-2.03l-1.77-4.91-.79-2.69.16,7.59h-2.8v-10.76Z"/>
    <g>
      <path class="cls-1" d="m144.61,41.8h25.98c15.16,0,24.81,7.85,24.81,20.36,0,8.27-4.03,14.1-10.82,17.18,4.67,2.12,7.11,6.04,8.91,13.15l5.41,21.42h-10.29l-4.56-19.51c-2.12-9.01-5.73-10.71-14.42-10.71h-15.27v30.22h-9.75V41.8Zm9.75,7.95v25.98h15.8c9.54,0,15.16-5.09,15.16-13.04s-5.62-12.94-14.95-12.94h-16.01Z"/>
      <path class="cls-1" d="m225.09,115.18c-16.33,0-26.19-11.03-26.19-29.37s9.86-29.58,25.66-29.58,25.45,10.92,25.45,28.84v2.33h-41.57c.53,12.62,6.47,19.72,16.65,19.72,7.95,0,13.57-3.82,15.59-11.56h9.75c-3.07,13.15-12.51,19.62-25.34,19.62Zm-16.33-34.78h31.49c-1.27-10.39-6.89-16.12-15.69-16.12s-14.42,5.62-15.8,16.12Z"/>
      <path class="cls-1" d="m254.86,85.38c0-18.87,8.8-29.16,22.9-29.16,7.53,0,13.61,3.02,16.86,8.42v-7.04h9.33v58c0,15.69-10.08,23.01-23.01,23.01s-22.59-6.36-24.6-19.19h9.33c1.17,7.42,7,11.45,15.16,11.45s13.79-4.45,13.79-14.95v-10.55c-3.66,5.69-9.65,8.96-16.86,8.96-14.32,0-22.9-10.92-22.9-28.95Zm39.76-.11c0-13.25-5.51-20.99-15.16-20.99s-15.06,7.42-15.06,21.1,5.41,20.89,15.06,20.89,15.16-7.42,15.16-21Z"/>
      <path class="cls-1" d="m315.67,65.02h-7v-7.42h7v-12.94h9.33v12.94h12.41v7.42h-12.41v32.66c0,6.79,2.01,9.97,10.29,9.97h1.91v6.68c-1.06.53-3.39.85-6.04.85-10.5,0-15.48-5.62-15.48-17.5v-32.66Z"/>
      <path class="cls-1" d="m343.2,39.58h9.33v10.48h-9.33v-10.48Zm0,18.02h9.33v56.3h-9.33v-56.3Z"/>
      <path class="cls-1" d="m361.17,57.6h9.33v8.33c3.55-6.26,9.23-9.71,16.12-9.71,7.74,0,13.36,3.39,16.01,9.97,3.71-6.57,9.86-9.97,17.39-9.97,11.45,0,18.34,7,18.34,20.04v37.64h-9.33v-35.74c0-8.48-3.39-14-11.03-14-8.48,0-13.57,8.38-13.57,16.43v33.3h-9.33v-35.74c0-8.48-3.39-14-11.03-14-8.48,0-13.57,8.38-13.57,16.43v33.3h-9.33v-56.3Z"/>
      <path class="cls-1" d="m469.41,115.18c-16.33,0-26.19-11.03-26.19-29.37s9.86-29.58,25.66-29.58,25.45,10.92,25.45,28.84v2.33h-41.57c.53,12.62,6.47,19.72,16.65,19.72,7.95,0,13.57-3.82,15.59-11.56h9.75c-3.07,13.15-12.51,19.62-25.34,19.62Zm-16.33-34.78h31.49c-1.27-10.39-6.89-16.12-15.69-16.12s-14.42,5.62-15.8,16.12Z"/>
    </g>
  </g>
  <path class="cls-1" d="m102.83,34.45l-26.13-17.45c-.96-.64-2.18-.69-3.19-.16-1.01.55-1.63,1.59-1.63,2.75v29.07l-21.35-14.21c-.94-.64-2.18-.71-3.17-.16-1.01.53-1.65,1.59-1.65,2.73v29.07l-21.31-14.23c-.96-.64-2.18-.69-3.19-.16-1.01.55-1.63,1.59-1.63,2.75v44.66c0,17.91,11.34,33.95,28.2,39.92.34.12.69.18,1.03.18.64,0,1.26-.2,1.79-.57.83-.57,1.31-1.52,1.31-2.53V42.82l19.97,13.31v79.99c0,1.01.48,1.97,1.31,2.53.51.37,1.15.57,1.79.57.34,0,.69-.05,1.03-.18,16.87-5.97,28.21-22,28.21-39.92v-62.1c0-1.03-.51-2-1.38-2.57Zm-57.12,96.98c-12.08-6.06-19.93-18.55-19.93-32.32v-38.87l19.93,13.31v57.88Zm52.3-32.32c0,13.77-7.85,26.26-19.93,32.32V25.38l19.93,13.31v60.43Z"/>
</svg>