<svg version="1.1" id="Layer_1" xmlns="http://www.w3.org/2000/svg" xmlns:xlink="http://www.w3.org/1999/xlink" x="0px" y="0px"
	 width="100%" viewBox="0 0 1024 854" enable-background="new 0 0 1024 854" xml:space="preserve">
<path fill="#000000" opacity="1.000000" stroke="none" 
	d="
M70.421249,529.678406 
	C71.296509,543.787842 72.590141,557.350586 77.060806,570.413757 
	C81.729752,584.056274 88.148430,596.303040 100.766426,604.553650 
	C108.035446,609.306641 108.298157,614.162109 102.775169,620.789246 
	C95.537041,629.474365 86.113136,630.689270 77.271622,623.628845 
	C67.466370,615.798767 61.568089,605.140320 57.369469,593.596619 
	C49.433601,571.777771 47.640018,549.205078 49.510178,526.167236 
	C51.239265,504.867096 54.837650,483.869537 60.097713,463.226532 
	C64.119568,447.442810 69.105446,431.871246 74.359421,416.442627 
	C82.625938,392.167603 92.924332,368.680817 103.703522,345.433167 
	C124.734367,300.075653 150.931946,257.880951 181.450012,218.268677 
	C208.466797,183.201019 238.326996,150.783463 270.693848,120.672241 
	C297.546509,95.690926 325.995636,72.634804 356.506897,52.213444 
	C373.103424,41.105278 389.695679,29.960045 408.007507,21.750662 
	C413.937561,19.092155 420.039429,16.994499 426.618286,16.514505 
	C436.615417,15.785112 442.907318,21.242498 443.180176,31.355898 
	C443.514954,43.763863 439.782654,55.340374 435.369720,66.713387 
	C417.954102,111.597382 397.163239,154.960098 376.352661,198.331894 
	C352.379974,248.293732 327.596313,297.915741 308.230377,349.945709 
	C296.903412,380.377533 287.167542,411.302216 279.973785,443.015900 
	C274.483582,467.219299 270.011505,491.590485 267.067871,516.217224 
	C265.504089,529.299805 264.950470,542.585144 267.454803,555.562500 
	C271.365051,575.825378 283.460815,585.940796 305.570007,581.895325 
	C326.302551,578.101685 344.249847,567.848206 362.064240,557.402588 
	C392.227386,539.716064 422.156769,521.629822 452.369171,504.028717 
	C473.519104,491.707245 495.162140,480.296509 518.218079,471.820984 
	C531.393433,466.977570 544.658630,462.771332 559.013428,463.661682 
	C566.398560,464.119781 572.178223,466.913727 575.803162,473.526978 
	C577.958435,477.459045 580.000061,481.453308 582.125854,485.401794 
	C585.402222,491.487579 590.844116,493.738251 597.415161,494.008362 
	C608.605713,494.468414 619.210571,491.608154 629.650208,488.113281 
	C649.375793,481.509705 668.917297,474.334106 688.752197,468.084747 
	C712.931030,460.466705 737.716919,456.090912 763.091919,460.030060 
	C780.064270,462.664825 796.192688,468.857452 812.504211,474.129517 
	C833.567810,480.937500 854.390503,488.555145 875.945557,493.730377 
	C888.072021,496.641876 900.261902,499.365906 912.950745,496.976410 
	C917.752380,496.072205 921.824829,494.348419 925.092773,490.723053 
	C926.542114,489.115265 928.004578,487.503967 929.601807,486.048767 
	C931.671265,484.163208 934.195374,482.795563 936.867859,484.311218 
	C939.645752,485.886566 938.640015,488.625946 937.997864,491.053955 
	C936.426941,496.993896 936.969849,497.640808 943.125671,497.917999 
	C964.579773,498.883942 986.030823,499.916962 1007.484131,500.900177 
	C1009.562256,500.995422 1011.556519,501.257843 1012.648315,503.276886 
	C1013.826477,505.455566 1012.510193,507.188721 1011.186890,508.669800 
	C1003.653198,517.101257 995.226501,523.434448 982.984314,523.299744 
	C968.628479,523.141602 954.467651,520.880127 940.165771,520.201050 
	C930.082825,519.722290 923.082458,523.038635 918.471985,532.452209 
	C913.592834,542.414307 909.107910,552.798889 900.475037,560.425354 
	C898.853271,561.857971 897.425537,563.515991 895.764343,564.896790 
	C893.653748,566.651123 891.325745,569.760742 888.534363,567.854492 
	C885.243042,565.606934 887.134888,561.925720 888.582886,559.252136 
	C893.419861,550.321167 898.681335,541.620789 903.558044,532.710449 
	C907.760315,525.032471 905.815796,521.159302 896.969849,520.321350 
	C881.738159,518.878357 866.505554,517.850159 851.599915,513.876953 
	C833.706726,509.107391 816.335144,502.854675 798.961975,496.554352 
	C773.773621,487.419952 748.138184,480.355347 721.008972,481.426117 
	C707.189026,481.971558 693.443787,483.518768 680.230408,488.019989 
	C656.912964,495.963196 633.669373,504.129120 610.271179,511.825958 
	C601.297058,514.778015 592.186401,517.666321 582.492920,517.423584 
	C573.988220,517.210571 567.378845,513.890747 563.293640,506.182159 
	C561.734314,503.239746 560.193237,500.285797 558.555420,497.387085 
	C553.721802,488.832184 546.606750,485.676910 536.856079,486.589539 
	C512.825623,488.838715 491.144257,498.006836 469.894653,508.590759 
	C440.931549,523.016541 413.911499,540.758911 386.318970,557.527466 
	C362.138641,572.222351 338.388214,587.728271 312.029175,598.449524 
	C302.110504,602.483826 291.871094,605.353760 280.995514,605.212280 
	C264.876526,605.002502 253.184555,596.172363 248.278137,580.719727 
	C244.226059,567.957703 243.651932,554.835510 244.247620,541.667480 
	C245.852158,506.198761 254.239487,471.941833 263.134369,437.767151 
	C274.689148,393.372894 290.288391,350.390839 307.493225,307.928406 
	C324.017548,267.145508 343.153107,227.610840 363.087952,188.410446 
	C380.293823,154.576447 396.841980,120.386681 410.702515,85.014206 
	C415.224609,73.473671 420.315491,61.903950 420.121765,49.008121 
	C420.000549,40.939594 416.965607,38.276100 408.908081,39.675426 
	C394.032898,42.258766 381.003906,49.357334 368.127014,56.665539 
	C337.108124,74.270149 309.559967,96.520653 283.282532,120.467850 
	C254.291901,146.887665 227.514069,175.380081 202.922028,205.919022 
	C186.185791,226.702454 171.557205,248.945435 158.133499,271.979767 
	C140.685089,301.920319 124.953415,332.764160 111.453957,364.667572 
	C99.135689,393.779419 88.321068,423.430420 80.721642,454.240906 
	C74.631683,478.931580 70.567871,503.770660 70.421249,529.678406 
z"/>
<text x="530" y="784" font-family="Arial, Helvetica, sans-serif" font-size="150" textLength="966" lengthAdjust="spacing" fill="#71717A" text-anchor="middle">MAX AEC LLC</text>
</svg>