<svg xmlns="http://www.w3.org/2000/svg" viewBox="0 0 199 36" width="199" height="36">
  <!-- Mark: 56 × 35.5, scaled from 1281.18 × 813.05 -->
  <g transform="scale(0.04371,0.04367)">
    <path fill="#333333" d="M1181.03,638.6c30.83,3.71,62.2,3.54,93.26,5.23,20.95,2.91-11.82,25.39-19.86,27.96-16.73,5.35-44.94-1.28-63.01-2.09-32.42-1.46-30.04,8.22-43.37,31.71-5.76,10.15-16.16,23.56-25.67,30.32-5.98,4.25-9.76.68-8.27-6.27,2.34-10.94,19.25-30.72,23.54-43.45,1.34-3.99,2.12-6.79-1.79-9.75-4.97-3.75-32.16-4.53-40.35-5.65-69.94-9.6-130.52-51.62-203.17-48.91-55.74,2.08-105.5,30.78-158.46,44.54-20.3,5.27-37.9,7.91-50.42-11.58-14.18-22.07-13.31-28.71-43.94-24.78-74.51,9.58-170.62,83.33-236.97,121.03-66.33,37.69-144.6,71.36-142.68-42.68,1.73-102.51,50.72-238.73,90.54-333.46,36.67-87.23,84.71-169.09,120.94-256.06,8.59-20.62,24.53-54.42,21.44-76.38-1.12-7.97-6.48-8.08-13.4-7.57-35.01,2.6-104.01,53.17-131.99,76C218,212.37,127.14,343.28,68.14,499.5c-25.48,67.47-68.68,215.56-10.25,273.74,9.64,9.6,27.4,13.7,13.41,30.42-20.79,24.85-46.03-5.38-55.29-24.54-42.83-88.58,9.67-237.24,47.7-322.05C136.66,294.37,259.78,148.68,407.16,48.52c21.27-14.46,47.42-32.14,71.05-41.95,82.4-34.22,30.01,74.79,16.85,105.85-59.66,140.81-139.82,272.08-179.89,421.11-12.53,46.58-34.15,138.45-24.62,184.05,11.94,57.14,70.08,31.76,105.01,13.34,47.2-24.89,93.08-55.87,139.66-82.34,36.55-20.77,103.98-58.75,146.06-53.72,26.17,3.13,19.34,37.25,45.12,39.88,34.56,3.52,107.11-31.45,145.48-40.5,80.59-19.01,130.07,12.73,204.01,34.01,23.73,6.83,65.67,20.06,86.91,3.92,4.28-3.25,9.44-11.9,15.13-10.99,8.53,1.37,1.52,11.86,3.1,17.43Z"/>
  </g>
  <!-- Divider: 2px × 30px, #1a1a2e, 12px gap after 56px mark = x68 -->
  <rect x="68" y="3" width="2" height="30" fill="#1a1a2e"/>
  <!-- Wordmark: 12px gap after divider = x82, vertically centered -->
  <text x="82" y="22.6" font-family="Inter,-apple-system,BlinkMacSystemFont,sans-serif" font-size="15.2" font-weight="400" fill="#6b7280" letter-spacing="1.368">MAX AEC LLC</text>
</svg>
