<?xml version="1.0" encoding="UTF-8"?>
<svg id="Layer_2" data-name="Layer 2" xmlns="http://www.w3.org/2000/svg" viewBox="0 0 1281.3 1049.03">
  <defs>
    <style>
      .cls-1 {
        fill: #747474;
      }
    </style>
  </defs>
  <g id="Layer_1-2" data-name="Layer 1">
    <path d="M1181.14,638.6c30.83,3.71,62.2,3.54,93.26,5.23,20.95,2.91-11.82,25.39-19.86,27.96-16.73,5.35-44.94-1.28-63.01-2.09-32.42-1.46-30.04,8.22-43.37,31.71-5.76,10.15-16.16,23.56-25.67,30.32-5.98,4.25-9.76.68-8.27-6.27,2.34-10.94,19.25-30.72,23.54-43.45,1.34-3.99,2.12-6.79-1.79-9.75-4.97-3.75-32.16-4.53-40.35-5.65-69.94-9.6-130.52-51.62-203.17-48.91-55.74,2.08-105.5,30.78-158.46,44.54-20.3,5.27-37.9,7.91-50.42-11.58-14.18-22.07-13.31-28.71-43.94-24.78-74.51,9.58-170.62,83.33-236.97,121.03-66.33,37.69-144.6,71.36-142.68-42.68,1.73-102.51,50.72-238.73,90.54-333.46,36.67-87.23,84.71-169.09,120.94-256.06,8.59-20.62,24.53-54.42,21.44-76.38-1.12-7.97-6.48-8.08-13.4-7.57-35.01,2.6-104.01,53.17-131.99,76C218.12,212.37,127.25,343.28,68.25,499.5c-25.48,67.47-68.68,215.56-10.25,273.74,9.64,9.6,27.4,13.7,13.41,30.42-20.79,24.85-46.03-5.38-55.29-24.54-42.83-88.58,9.67-237.24,47.7-322.05C136.77,294.37,259.9,148.68,407.28,48.52c21.27-14.46,47.42-32.14,71.05-41.95,82.4-34.22,30.01,74.79,16.85,105.85-59.66,140.81-139.82,272.08-179.89,421.11-12.53,46.58-34.15,138.45-24.62,184.05,11.94,57.14,70.08,31.76,105.01,13.34,47.2-24.89,93.08-55.87,139.66-82.34,36.55-20.77,103.98-58.75,146.06-53.72,26.17,3.13,19.34,37.25,45.12,39.88,34.56,3.52,107.11-31.45,145.48-40.5,80.59-19.01,130.07,12.73,204.01,34.01,23.73,6.83,65.67,20.06,86.91,3.92,4.28-3.25,9.44-11.9,15.13-10.99,8.53,1.37,1.52,11.86,3.1,17.43Z"/>
    <polygon class="cls-1" points="98 920.75 121 920.75 121 1046.75 105 1046.75 105 945.75 102.03 945.76 67.9 1046.64 52.96 1046.29 17.27 943.96 15.48 943.73 14.5 1046.75 0 1046.75 0 920.75 23.5 920.75 61.49 1026.74 98 920.75"/>
    <path class="cls-1" d="M629,934.75l-.95,37.6c-.23.83,1.03,2.4,1.45,2.4h69.5c-.3,2.16,1.02,14-1.5,14h-68.5v44h76.5c2.52,0,1.2,11.84,1.5,14h-95v-124.5c0-.11,1.39-1.5,1.5-1.5h89c2.25,0,2.25,14,0,14h-73.5Z"/>
    <path class="cls-1" d="M849,955.73l-15.02,3.58c-1.45-.71-4.67-9.52-6.15-11.89-13.09-21-49.12-18.27-62.66.99-11.61,16.5-11.54,55.79.84,71.84,19.85,25.75,64.73,16.18,69.02-17.51,4.35,1.36,10.69,2.08,14.75,3.74,1.31.54,1.3-.12,1.22,1.69-.11,2.37-3.81,10.41-5.12,12.93-12.8,24.52-40.12,32.08-65.9,25.18-49-13.11-54.65-95.59-11.98-119.05,30.07-16.53,71.72-7.34,81.02,28.5Z"/>
    <path class="cls-1" d="M306.5,920.75c2.64.83,27.32,40.35,31.46,45.54.84,1.12,2.13,1.74,3.52,1.49.64-.11,5.77-9.09,7.14-10.93,3.29-4.43,25.61-36.11,27.89-36.11h16.5l-43.1,59.49,46.1,66.51h-20c-10.63-17.62-24.04-33.74-34.91-51.35-1.73-1.39-3.19-1.26-4.38.61-11.12,17.53-23.52,34.3-36.22,50.74h-18.5l47.96-65.49-41.96-60.51c4.69.91,14.59-1.23,18.5,0Z"/>
    <path class="cls-1" d="M1265.01,1002.74c2.12.54,15.45,3.41,15.92,4.09,1.15,1.66-3.88,13.01-5.1,15.24-20.8,38.31-80.57,35.02-98.68-4.97-21.53-47.55,3.36-102.45,60.34-97.34,17.14,1.54,37.91,16.43,41.11,33.95.82,4.46-11.04,3.46-14.63,5.61-7.12-21.64-24.03-30.18-46.21-25.32-30.23,6.62-34.53,43.15-29.1,68.59,9.17,42.98,69.59,43.57,76.35.15Z"/>
    <path class="cls-1" d="M965,920.75v112h62c.72,0,2.29,14-.5,14h-77c-.11,0-1.5-1.39-1.5-1.5v-121c0-.71.74-3.5,1.5-3.5h15.5Z"/>
    <path class="cls-1" d="M1078,920.75v112h62v14h-79v-124.5c0-.11,1.39-1.5,1.5-1.5h15.5Z"/>
    <path class="cls-1" d="M149,1046.75l49.46-126.07,16.65.67,50.89,125.41h-17.5c-2.03,0-12.4-33.47-15.48-37.52l-53.41-.55-13.61,38.06h-17ZM205.5,935.74l-20.5,59.01h42l-21.5-59.01Z"/>
    <path class="cls-1" d="M466,1046.75l48.5-125c1.92-2.31,14.25-.31,17.89-1.06l51.61,126.06h-17.5c-2,0-12.99-32.7-15-37l-2.95-1.05-51.62.49-12.94,37.56h-18ZM523.99,935.75l-20.99,59h42l-21.01-59Z"/>
  </g>
</svg>