<?xml version="1.0" encoding="UTF-8"?>
<svg id="Logotype" xmlns="http://www.w3.org/2000/svg" version="1.1" viewBox="0 0 78.36 70.14">
  <!-- Generator: Adobe Illustrator 29.8.2, SVG Export Plug-In . SVG Version: 2.1.1 Build 3)  -->
  <defs>
    <style>
      .st0 {
        fill: #ffffff;
      }
    </style>
  </defs>
  <path id="Path_66" class="st0" d="M11.05,60l1.36-6.32h8.81v16.66h-5.57v-4.73c0-2.28.03-4.41.12-6.35-.18.8-.35,1.56-.56,2.27l-2.27,8.81h-4.64l-2.32-8.81c-.09-.33-.16-.64-.25-.94-.07-.29-.14-.55-.19-.8-.02-.14-.06-.27-.11-.4.09,1.9.12,3.98.12,6.22v4.73H0v-16.65h8.8l1.41,6.32c.16.71.3,1.37.42,1.99.21-1,.33-1.66.42-1.99Z"/>
  <path id="Path_67" class="st0" d="M32.25,64.3v-3.67h8.73v9.71h-3.7l-.41-1.78c-1.2,1.45-3.03,2.18-5.52,2.18-2.37.13-4.69-.78-6.35-2.48-1.57-1.71-2.4-3.97-2.31-6.28-.09-2.36.84-4.64,2.54-6.27,1.88-1.67,4.35-2.53,6.86-2.39,2.14-.08,4.25.5,6.05,1.66,1.52,1.03,2.54,2.65,2.8,4.47h-5.85c-.49-1.14-1.67-1.81-2.9-1.64-.99-.05-1.94.33-2.63,1.04-.71.92-1.05,2.07-.95,3.22,0,2.82,1.2,4.22,3.6,4.22,1.69,0,2.75-.66,3.21-1.99h-3.16Z"/>
  <path id="Path_68" class="st0" d="M54.08,56.4v-2.72h5.57v16.66h-5.94l-3.79-5.92c-.64-.99-1.2-1.9-1.69-2.79.07,1.56.11,3.55.11,5.99v2.72h-5.57v-16.66h5.94l3.72,5.92c.46.71,1.04,1.77,1.74,3.13-.05-1.39-.09-3.5-.09-6.34Z"/>
  <path id="Path_69" class="st0" d="M71.2,55.8l1.06-2.11h6.1l-6.05,10.32v6.34h-5.71v-6.34l-6.28-10.32h6.17l1.16,2.11c.79,1.45,1.41,2.65,1.87,3.58.53-1.21,1.08-2.41,1.67-3.58Z"/>
  <path id="Path-2" class="st0" d="M78.34,48.94H0v-6.63l78.35,5.12v1.51Z"/>
  <path id="Path-3" class="st0" d="M63.76.6l-6.63,3.12v2.34l-4.2,2.01-2.37-1.21-6.68,3.17v2.1l-4.52,2.15-2.1-1-5.31,2.58v3.39l.55-.21v28.23l.86-.02v-29.4l-.58.26v-1.82l4.12-2.1v1.97l-.48.23v31.34h4.04v-15.67c0-6.27,1.46-8.59,1.46-8.59,0,0,2.31,2.13,2.31,8.57v16.64h1V13.4l-.78.02v12.34c-.56-1.93-1.78-3.59-3.46-4.69-1.77,1.13-3.03,2.91-3.51,4.95v-9.06l7.76-3.44v-1.32l-.32.16v-1.39l5.15-2.46v1.42l-.81.4v37.27h4.62v-21.82c0-5.19,1.41-7.5,1.41-7.5,0,0,2.35,2.37,2.35,7.46,0,5.83.12,21.71.12,21.71h1.3V6.56l-1.13.03-.03,14.11c-1.59-3.81-3.47-4.57-3.47-4.57-1.7.98-2.98,2.56-3.58,4.43v-9.89l8.21-3.83v-1.14l-.7.33v-1.51l5.39-2.58v1.54l-.67.31v44.41h3.74V3.94l1.25-.64v44.84h3.98V7.55l-2.63-1.35v-2.51l-5.68-3.08Z"/>
  <path id="Path_70" class="st0" d="M20.2,46.59v-.88c2.41,0,6.88-1.58,11.64-4.09,5.78-3.07,11.08-6.96,15.74-11.55,5.85-5.82,12.8-15.25,12.64-27.17l.9-.02c.16,12.22-6.93,21.87-12.9,27.81-9.88,9.85-23,15.9-28.02,15.9Z"/>
  <path id="Path_71" class="st0" d="M10.87,46.07v-.88c4.76,0,13.79-4.85,21.46-11.53,9.2-8.01,14.47-16.83,14.47-24.17h.9c0,7.6-5.38,16.64-14.77,24.83-7.81,6.81-17.08,11.76-22.05,11.76Z"/>
  <path id="Path_72" class="st0" d="M5.3,44.49v-.88c4.02,0,11.32-3.84,17.38-9.14,7.21-6.32,11.35-13.31,11.35-19.2h.9c0,6.13-4.25,13.37-11.65,19.86-6.31,5.5-13.7,9.37-17.98,9.37Z"/>
</svg>